<?xml version="1.0" standalone="no"?>
<!DOCTYPE svg PUBLIC "-//W3C//DTD SVG 20010904//EN"
 "http://www.w3.org/TR/2001/REC-SVG-20010904/DTD/svg10.dtd">
<svg version="1.0" xmlns="http://www.w3.org/2000/svg"
 width="300.000000pt" height="300.000000pt" viewBox="0 0 300.000000 300.000000"
 preserveAspectRatio="xMidYMid meet">
<metadata>
Created by potrace 1.14, written by Peter Selinger 2001-2017
</metadata>
<g transform="translate(0.000000,300.000000) scale(0.100000,-0.100000)"
fill="#000000" stroke="none">
<path d="M0 1500 l0 -1500 1500 0 1500 0 0 1500 0 1500 -1500 0 -1500 0 0
-1500z m691 -83 c46 -25 89 -84 89 -124 0 -21 -5 -23 -48 -23 -43 0 -49 3 -59
29 -22 60 -134 66 -176 9 -19 -25 -19 -28 -4 -52 12 -18 39 -32 104 -51 116
-35 151 -58 175 -112 25 -58 17 -112 -25 -159 -39 -45 -73 -62 -139 -70 -127
-15 -238 60 -238 161 0 23 3 25 48 25 45 0 49 -2 60 -34 16 -43 56 -60 119
-53 79 9 116 75 65 113 -9 7 -55 23 -104 38 -133 40 -189 102 -172 191 21 113
187 174 305 112z m455 0 c76 -39 115 -124 96 -207 -24 -104 -77 -141 -209
-148 l-83 -5 0 -93 0 -94 -50 0 -50 0 0 286 0 287 133 -5 c95 -3 141 -9 163
-21z m456 -247 c54 -146 100 -273 103 -282 6 -16 -1 -18 -48 -18 l-55 0 -24
73 -25 72 -94 3 -94 3 -25 -73 -26 -73 -52 -3 c-29 -2 -52 1 -52 7 0 5 41 121
91 258 50 136 96 261 101 276 10 26 14 28 56 25 l46 -3 98 -265z m446 254 c68
-28 132 -110 132 -169 0 -23 -3 -25 -50 -25 -43 0 -50 3 -50 20 0 11 -13 34
-29 52 -24 27 -36 32 -87 35 -108 7 -159 -52 -159 -187 0 -119 50 -183 144
-184 58 -1 98 23 121 72 14 29 19 32 63 32 40 0 47 -3 47 -19 0 -56 -54 -127
-125 -164 -84 -43 -211 -21 -276 50 -96 103 -105 293 -19 412 58 80 193 115
288 75z m552 -34 l0 -50 -125 0 -125 0 0 -70 0 -70 120 0 120 0 0 -45 0 -45
-120 0 -120 0 0 -70 0 -70 130 0 130 0 0 -50 0 -50 -180 0 -180 0 0 285 0 285
175 0 175 0 0 -50z"/>
<path d="M495 1385 c-64 -33 -90 -98 -60 -154 17 -35 66 -61 157 -86 108 -30
147 -75 124 -145 -30 -94 -214 -108 -264 -20 -9 16 -23 30 -29 30 -21 0 -15
-19 20 -55 79 -84 253 -66 293 32 33 78 -9 139 -114 169 -106 29 -120 35 -146
59 -19 18 -26 34 -26 63 0 51 27 85 80 101 65 19 118 6 162 -40 20 -21 39 -35
42 -30 9 14 -35 62 -70 77 -44 18 -132 18 -169 -1z"/>
<path d="M890 1155 c0 -193 3 -246 13 -243 15 6 22 137 7 152 -13 13 -13 96 0
96 6 0 10 43 10 110 l0 110 80 0 c136 0 180 -32 180 -130 0 -93 -43 -130 -155
-130 -41 0 -65 -4 -65 -11 0 -18 153 -6 184 14 43 29 61 65 61 127 0 109 -46
142 -207 148 l-108 4 0 -247z"/>
<path d="M950 1250 l0 -90 65 0 c81 0 112 14 124 55 23 83 -17 125 -120 125
l-69 0 0 -90z"/>
<path d="M1431 1378 c-60 -163 -91 -252 -86 -256 9 -10 16 5 55 115 52 150 63
150 115 -2 22 -63 45 -115 52 -115 8 0 5 20 -11 63 -13 34 -36 97 -52 140 -21
57 -33 77 -47 77 -9 0 -21 -10 -26 -22z"/>
<path d="M1427 1195 l-26 -75 54 0 c30 0 55 3 55 6 0 11 -43 128 -50 137 -3 4
-18 -27 -33 -68z"/>
<path d="M1385 1070 c-4 -6 22 -10 69 -10 44 0 76 4 76 10 0 6 -30 10 -69 10
-39 0 -73 -4 -76 -10z"/>
<path d="M1295 1008 c-31 -87 -34 -98 -21 -98 7 0 18 18 25 41 7 23 15 47 18
55 3 8 0 14 -6 14 -7 0 -14 -6 -16 -12z"/>
<path d="M1610 969 c21 -56 27 -65 36 -56 10 10 -29 107 -43 107 -10 0 -8 -13
7 -51z"/>
<path d="M1870 1389 c-96 -38 -153 -187 -121 -316 31 -123 136 -191 252 -163
61 15 129 74 128 111 0 23 -1 23 -12 4 -71 -117 -208 -136 -295 -41 -82 89
-81 254 2 344 72 80 221 66 277 -25 22 -35 43 -45 32 -15 -14 39 -48 75 -87
93 -45 20 -135 24 -176 8z"/>
<path d="M2290 1155 l0 -245 140 0 c87 0 140 4 140 10 0 6 -50 10 -130 10
l-130 0 0 110 0 109 123 4 122 3 -122 2 -123 2 0 110 0 110 125 0 c77 0 125 4
125 10 0 6 -52 10 -135 10 l-135 0 0 -245z"/>
</g>
</svg>
